<mxfile host="app.diagrams.net" modified="2022-10-12T22:57:16.025Z" agent="5.0 (Windows NT 10.0; Win64; x64) AppleWebKit/537.36 (KHTML, like Gecko) Chrome/105.0.0.0 Safari/537.36" etag="RU2_iy87PN4fRqkvFXM9" version="20.4.0" type="github">
  <diagram id="NI2sbRIPGw0O3It5G5bQ" name="Page-1">
    <mxGraphModel dx="1209" dy="640" grid="1" gridSize="10" guides="1" tooltips="1" connect="1" arrows="1" fold="1" page="1" pageScale="1" pageWidth="850" pageHeight="1100" math="0" shadow="0">
      <root>
        <mxCell id="0" />
        <mxCell id="1" parent="0" />
        <mxCell id="ieqs-oncpJ_l9lBFtXVg-4" value="" style="edgeStyle=orthogonalEdgeStyle;rounded=0;orthogonalLoop=1;jettySize=auto;html=1;" edge="1" parent="1" target="ieqs-oncpJ_l9lBFtXVg-3">
          <mxGeometry relative="1" as="geometry">
            <mxPoint x="140" y="90" as="sourcePoint" />
          </mxGeometry>
        </mxCell>
        <mxCell id="ieqs-oncpJ_l9lBFtXVg-6" value="" style="edgeStyle=orthogonalEdgeStyle;rounded=0;orthogonalLoop=1;jettySize=auto;html=1;" edge="1" parent="1" source="ieqs-oncpJ_l9lBFtXVg-3" target="ieqs-oncpJ_l9lBFtXVg-5">
          <mxGeometry relative="1" as="geometry" />
        </mxCell>
        <mxCell id="ieqs-oncpJ_l9lBFtXVg-3" value="delarasi nama, saldo, saldo awal, penambahan, penarikan, batasTransaksi, menu" style="shape=hexagon;perimeter=hexagonPerimeter2;whiteSpace=wrap;html=1;fixedSize=1;" vertex="1" parent="1">
          <mxGeometry x="40" y="120" width="200" height="80" as="geometry" />
        </mxCell>
        <mxCell id="ieqs-oncpJ_l9lBFtXVg-21" value="" style="edgeStyle=orthogonalEdgeStyle;rounded=0;orthogonalLoop=1;jettySize=auto;html=1;" edge="1" parent="1" source="ieqs-oncpJ_l9lBFtXVg-5" target="ieqs-oncpJ_l9lBFtXVg-18">
          <mxGeometry relative="1" as="geometry" />
        </mxCell>
        <mxCell id="ieqs-oncpJ_l9lBFtXVg-5" value="masukan nama, saldo awal&lt;br&gt;" style="shape=parallelogram;perimeter=parallelogramPerimeter;whiteSpace=wrap;html=1;fixedSize=1;" vertex="1" parent="1">
          <mxGeometry x="50" y="220" width="180" height="50" as="geometry" />
        </mxCell>
        <mxCell id="ieqs-oncpJ_l9lBFtXVg-10" style="edgeStyle=orthogonalEdgeStyle;rounded=0;orthogonalLoop=1;jettySize=auto;html=1;entryX=0;entryY=0.5;entryDx=0;entryDy=0;" edge="1" parent="1" source="ieqs-oncpJ_l9lBFtXVg-7" target="ieqs-oncpJ_l9lBFtXVg-9">
          <mxGeometry relative="1" as="geometry" />
        </mxCell>
        <mxCell id="ieqs-oncpJ_l9lBFtXVg-16" value="" style="edgeStyle=orthogonalEdgeStyle;rounded=0;orthogonalLoop=1;jettySize=auto;html=1;" edge="1" parent="1" source="ieqs-oncpJ_l9lBFtXVg-7" target="ieqs-oncpJ_l9lBFtXVg-15">
          <mxGeometry relative="1" as="geometry" />
        </mxCell>
        <mxCell id="ieqs-oncpJ_l9lBFtXVg-7" value="Apakah BatasTransaksi &amp;gt; 0" style="rhombus;whiteSpace=wrap;html=1;" vertex="1" parent="1">
          <mxGeometry x="60" y="397" width="160" height="91" as="geometry" />
        </mxCell>
        <mxCell id="ieqs-oncpJ_l9lBFtXVg-24" value="" style="edgeStyle=orthogonalEdgeStyle;rounded=0;orthogonalLoop=1;jettySize=auto;html=1;" edge="1" parent="1" source="ieqs-oncpJ_l9lBFtXVg-9" target="ieqs-oncpJ_l9lBFtXVg-23">
          <mxGeometry relative="1" as="geometry" />
        </mxCell>
        <mxCell id="ieqs-oncpJ_l9lBFtXVg-9" value="saldoSekarang = Saldo" style="rounded=0;whiteSpace=wrap;html=1;" vertex="1" parent="1">
          <mxGeometry x="307" y="40" width="120" height="60" as="geometry" />
        </mxCell>
        <mxCell id="ieqs-oncpJ_l9lBFtXVg-12" value="B" style="text;html=1;align=center;verticalAlign=middle;resizable=0;points=[];autosize=1;strokeColor=none;fillColor=none;" vertex="1" parent="1">
          <mxGeometry x="246" y="190" width="30" height="30" as="geometry" />
        </mxCell>
        <mxCell id="ieqs-oncpJ_l9lBFtXVg-13" value="S" style="text;html=1;align=center;verticalAlign=middle;resizable=0;points=[];autosize=1;strokeColor=none;fillColor=none;" vertex="1" parent="1">
          <mxGeometry x="130" y="483" width="30" height="30" as="geometry" />
        </mxCell>
        <mxCell id="ieqs-oncpJ_l9lBFtXVg-14" value="Mulai" style="strokeWidth=2;html=1;shape=mxgraph.flowchart.terminator;whiteSpace=wrap;" vertex="1" parent="1">
          <mxGeometry x="70" y="40" width="140" height="50" as="geometry" />
        </mxCell>
        <mxCell id="ieqs-oncpJ_l9lBFtXVg-15" value="Selesai" style="strokeWidth=2;html=1;shape=mxgraph.flowchart.terminator;whiteSpace=wrap;" vertex="1" parent="1">
          <mxGeometry x="72" y="517" width="137" height="50" as="geometry" />
        </mxCell>
        <mxCell id="ieqs-oncpJ_l9lBFtXVg-22" value="" style="edgeStyle=orthogonalEdgeStyle;rounded=0;orthogonalLoop=1;jettySize=auto;html=1;" edge="1" parent="1" source="ieqs-oncpJ_l9lBFtXVg-18" target="ieqs-oncpJ_l9lBFtXVg-7">
          <mxGeometry relative="1" as="geometry" />
        </mxCell>
        <mxCell id="ieqs-oncpJ_l9lBFtXVg-18" value="batasTransaksi = 5" style="rounded=0;whiteSpace=wrap;html=1;" vertex="1" parent="1">
          <mxGeometry x="65" y="300" width="150" height="60" as="geometry" />
        </mxCell>
        <mxCell id="ieqs-oncpJ_l9lBFtXVg-26" value="" style="edgeStyle=orthogonalEdgeStyle;rounded=0;orthogonalLoop=1;jettySize=auto;html=1;" edge="1" parent="1" source="ieqs-oncpJ_l9lBFtXVg-23" target="ieqs-oncpJ_l9lBFtXVg-25">
          <mxGeometry relative="1" as="geometry" />
        </mxCell>
        <mxCell id="ieqs-oncpJ_l9lBFtXVg-23" value="Tulis menu :&lt;br&gt;1. Penarikan&lt;br&gt;2. Store Tunai&lt;br&gt;jika bukan keduanya maka selesai" style="shape=parallelogram;perimeter=parallelogramPerimeter;whiteSpace=wrap;html=1;fixedSize=1;" vertex="1" parent="1">
          <mxGeometry x="282" y="125" width="170" height="80" as="geometry" />
        </mxCell>
        <mxCell id="ieqs-oncpJ_l9lBFtXVg-28" value="" style="edgeStyle=orthogonalEdgeStyle;rounded=0;orthogonalLoop=1;jettySize=auto;html=1;" edge="1" parent="1" source="ieqs-oncpJ_l9lBFtXVg-25" target="ieqs-oncpJ_l9lBFtXVg-27">
          <mxGeometry relative="1" as="geometry" />
        </mxCell>
        <mxCell id="ieqs-oncpJ_l9lBFtXVg-25" value="Baca Menu" style="shape=parallelogram;perimeter=parallelogramPerimeter;whiteSpace=wrap;html=1;fixedSize=1;" vertex="1" parent="1">
          <mxGeometry x="307" y="230" width="120" height="60" as="geometry" />
        </mxCell>
        <mxCell id="ieqs-oncpJ_l9lBFtXVg-30" value="" style="edgeStyle=orthogonalEdgeStyle;rounded=0;orthogonalLoop=1;jettySize=auto;html=1;" edge="1" parent="1" source="ieqs-oncpJ_l9lBFtXVg-27" target="ieqs-oncpJ_l9lBFtXVg-29">
          <mxGeometry relative="1" as="geometry" />
        </mxCell>
        <mxCell id="ieqs-oncpJ_l9lBFtXVg-32" value="" style="edgeStyle=orthogonalEdgeStyle;rounded=0;orthogonalLoop=1;jettySize=auto;html=1;" edge="1" parent="1" source="ieqs-oncpJ_l9lBFtXVg-27" target="ieqs-oncpJ_l9lBFtXVg-31">
          <mxGeometry relative="1" as="geometry">
            <Array as="points">
              <mxPoint x="460" y="424" />
              <mxPoint x="460" y="60" />
            </Array>
          </mxGeometry>
        </mxCell>
        <mxCell id="ieqs-oncpJ_l9lBFtXVg-27" value="menu 1" style="rhombus;whiteSpace=wrap;html=1;" vertex="1" parent="1">
          <mxGeometry x="322" y="380" width="90" height="88" as="geometry" />
        </mxCell>
        <mxCell id="ieqs-oncpJ_l9lBFtXVg-29" value="menu 2" style="rhombus;whiteSpace=wrap;html=1;" vertex="1" parent="1">
          <mxGeometry x="322" y="630" width="90" height="80" as="geometry" />
        </mxCell>
        <mxCell id="ieqs-oncpJ_l9lBFtXVg-34" value="" style="edgeStyle=orthogonalEdgeStyle;rounded=0;orthogonalLoop=1;jettySize=auto;html=1;" edge="1" parent="1" source="ieqs-oncpJ_l9lBFtXVg-31" target="ieqs-oncpJ_l9lBFtXVg-33">
          <mxGeometry relative="1" as="geometry" />
        </mxCell>
        <mxCell id="ieqs-oncpJ_l9lBFtXVg-31" value="Tulis Informasi &amp;amp; Jumlah Saldo" style="shape=parallelogram;perimeter=parallelogramPerimeter;whiteSpace=wrap;html=1;fixedSize=1;" vertex="1" parent="1">
          <mxGeometry x="530" y="35" width="120" height="60" as="geometry" />
        </mxCell>
        <mxCell id="ieqs-oncpJ_l9lBFtXVg-36" value="" style="edgeStyle=orthogonalEdgeStyle;rounded=0;orthogonalLoop=1;jettySize=auto;html=1;" edge="1" parent="1" source="ieqs-oncpJ_l9lBFtXVg-33" target="ieqs-oncpJ_l9lBFtXVg-35">
          <mxGeometry relative="1" as="geometry" />
        </mxCell>
        <mxCell id="ieqs-oncpJ_l9lBFtXVg-33" value="Baca Penarikan" style="shape=parallelogram;perimeter=parallelogramPerimeter;whiteSpace=wrap;html=1;fixedSize=1;" vertex="1" parent="1">
          <mxGeometry x="684" y="35" width="120" height="60" as="geometry" />
        </mxCell>
        <mxCell id="ieqs-oncpJ_l9lBFtXVg-38" value="" style="edgeStyle=orthogonalEdgeStyle;rounded=0;orthogonalLoop=1;jettySize=auto;html=1;" edge="1" parent="1" source="ieqs-oncpJ_l9lBFtXVg-35" target="ieqs-oncpJ_l9lBFtXVg-37">
          <mxGeometry relative="1" as="geometry" />
        </mxCell>
        <mxCell id="ieqs-oncpJ_l9lBFtXVg-42" value="" style="edgeStyle=orthogonalEdgeStyle;rounded=0;orthogonalLoop=1;jettySize=auto;html=1;" edge="1" parent="1" source="ieqs-oncpJ_l9lBFtXVg-35" target="ieqs-oncpJ_l9lBFtXVg-41">
          <mxGeometry relative="1" as="geometry" />
        </mxCell>
        <mxCell id="ieqs-oncpJ_l9lBFtXVg-35" value="Saldo - Penarikan &amp;lt; 5000" style="rhombus;whiteSpace=wrap;html=1;" vertex="1" parent="1">
          <mxGeometry x="669" y="119.5" width="150" height="95" as="geometry" />
        </mxCell>
        <mxCell id="ieqs-oncpJ_l9lBFtXVg-51" style="edgeStyle=orthogonalEdgeStyle;rounded=0;orthogonalLoop=1;jettySize=auto;html=1;entryX=0;entryY=0.5;entryDx=0;entryDy=0;" edge="1" parent="1" source="ieqs-oncpJ_l9lBFtXVg-37" target="ieqs-oncpJ_l9lBFtXVg-50">
          <mxGeometry relative="1" as="geometry">
            <Array as="points">
              <mxPoint x="470" y="167" />
              <mxPoint x="470" y="510" />
            </Array>
          </mxGeometry>
        </mxCell>
        <mxCell id="ieqs-oncpJ_l9lBFtXVg-37" value="Tulis &lt;br&gt;Sisa Saldo &amp;gt;= 5000" style="shape=parallelogram;perimeter=parallelogramPerimeter;whiteSpace=wrap;html=1;fixedSize=1;" vertex="1" parent="1">
          <mxGeometry x="500" y="143" width="160" height="47" as="geometry" />
        </mxCell>
        <mxCell id="ieqs-oncpJ_l9lBFtXVg-39" value="B" style="text;html=1;align=center;verticalAlign=middle;resizable=0;points=[];autosize=1;strokeColor=none;fillColor=none;" vertex="1" parent="1">
          <mxGeometry x="650" y="145" width="30" height="30" as="geometry" />
        </mxCell>
        <mxCell id="ieqs-oncpJ_l9lBFtXVg-40" value="S" style="text;html=1;align=center;verticalAlign=middle;resizable=0;points=[];autosize=1;strokeColor=none;fillColor=none;" vertex="1" parent="1">
          <mxGeometry x="720" y="214.5" width="30" height="30" as="geometry" />
        </mxCell>
        <mxCell id="ieqs-oncpJ_l9lBFtXVg-45" value="" style="edgeStyle=orthogonalEdgeStyle;rounded=0;orthogonalLoop=1;jettySize=auto;html=1;" edge="1" parent="1" source="ieqs-oncpJ_l9lBFtXVg-41" target="ieqs-oncpJ_l9lBFtXVg-44">
          <mxGeometry relative="1" as="geometry" />
        </mxCell>
        <mxCell id="ieqs-oncpJ_l9lBFtXVg-47" value="" style="edgeStyle=orthogonalEdgeStyle;rounded=0;orthogonalLoop=1;jettySize=auto;html=1;" edge="1" parent="1" source="ieqs-oncpJ_l9lBFtXVg-41" target="ieqs-oncpJ_l9lBFtXVg-46">
          <mxGeometry relative="1" as="geometry" />
        </mxCell>
        <mxCell id="ieqs-oncpJ_l9lBFtXVg-41" value="Penarikan &amp;lt; 2000" style="rhombus;whiteSpace=wrap;html=1;" vertex="1" parent="1">
          <mxGeometry x="669" y="250" width="150" height="80" as="geometry" />
        </mxCell>
        <mxCell id="ieqs-oncpJ_l9lBFtXVg-44" value="Tulis&lt;br&gt;Penarikan Minimal 2000" style="shape=parallelogram;perimeter=parallelogramPerimeter;whiteSpace=wrap;html=1;fixedSize=1;" vertex="1" parent="1">
          <mxGeometry x="500" y="260" width="160" height="60" as="geometry" />
        </mxCell>
        <mxCell id="ieqs-oncpJ_l9lBFtXVg-49" value="" style="edgeStyle=orthogonalEdgeStyle;rounded=0;orthogonalLoop=1;jettySize=auto;html=1;" edge="1" parent="1" source="ieqs-oncpJ_l9lBFtXVg-46" target="ieqs-oncpJ_l9lBFtXVg-48">
          <mxGeometry relative="1" as="geometry" />
        </mxCell>
        <mxCell id="ieqs-oncpJ_l9lBFtXVg-46" value="Saldo = Saldo - penarikan" style="rounded=0;whiteSpace=wrap;html=1;" vertex="1" parent="1">
          <mxGeometry x="684" y="365" width="120" height="60" as="geometry" />
        </mxCell>
        <mxCell id="ieqs-oncpJ_l9lBFtXVg-48" value="Tulis&lt;br&gt;SaldoAwal, Penarikan" style="shape=parallelogram;perimeter=parallelogramPerimeter;whiteSpace=wrap;html=1;fixedSize=1;" vertex="1" parent="1">
          <mxGeometry x="500" y="365" width="160" height="60" as="geometry" />
        </mxCell>
        <mxCell id="ieqs-oncpJ_l9lBFtXVg-50" value="Tulis&lt;br&gt;Sisa Saldo Anda \n,&lt;br&gt;Transaksi Anda Masih" style="shape=parallelogram;perimeter=parallelogramPerimeter;whiteSpace=wrap;html=1;fixedSize=1;" vertex="1" parent="1">
          <mxGeometry x="490" y="480" width="310" height="60" as="geometry" />
        </mxCell>
        <mxCell id="ieqs-oncpJ_l9lBFtXVg-54" value="" style="edgeStyle=none;orthogonalLoop=1;jettySize=auto;html=1;rounded=0;" edge="1" parent="1" source="ieqs-oncpJ_l9lBFtXVg-44">
          <mxGeometry width="80" relative="1" as="geometry">
            <mxPoint x="510" y="288.0000000000001" as="sourcePoint" />
            <mxPoint x="470" y="290" as="targetPoint" />
            <Array as="points" />
          </mxGeometry>
        </mxCell>
        <mxCell id="ieqs-oncpJ_l9lBFtXVg-55" value="" style="edgeStyle=none;orthogonalLoop=1;jettySize=auto;html=1;rounded=0;" edge="1" parent="1">
          <mxGeometry width="80" relative="1" as="geometry">
            <mxPoint x="510" y="400" as="sourcePoint" />
            <mxPoint x="470" y="399" as="targetPoint" />
            <Array as="points" />
          </mxGeometry>
        </mxCell>
      </root>
    </mxGraphModel>
  </diagram>
</mxfile>
